<svg id="visual" viewBox="0 0 1920 1080" width="1920" height="1080" xmlns="http://www.w3.org/2000/svg" xmlns:xlink="http://www.w3.org/1999/xlink" version="1.1"><rect x="0" y="0" width="1920" height="1080" fill="#3586ff"></rect><g transform="translate(951.2323261215759 506.6540301215631)"><path d="M242.4 -345C309.3 -285.1 355.3 -207.7 418.4 -112.6C481.5 -17.4 561.7 95.6 537.1 175.4C512.4 255.3 382.9 302 275.9 364.6C168.9 427.1 84.4 505.6 -11.9 521.9C-108.2 538.2 -216.3 492.4 -306 424.2C-395.7 356 -467 265.5 -500.9 162.4C-534.8 59.4 -531.3 -56 -492.2 -154.8C-453 -253.5 -378.1 -335.5 -290.2 -388.6C-202.2 -441.6 -101.1 -465.8 -6.7 -456.6C87.8 -447.5 175.6 -405 242.4 -345" fill="#9cc4ff"></path></g></svg>