<svg id="visual" viewBox="0 0 1920 200" width="1920" height="200" xmlns="http://www.w3.org/2000/svg" xmlns:xlink="http://www.w3.org/1999/xlink" version="1.1"><rect x="0" y="0" width="1920" height="200" fill="#001220"></rect><path d="M0 83L45.7 77.5C91.3 72 182.7 61 274.2 57C365.7 53 457.3 56 548.8 63.5C640.3 71 731.7 83 823 85.5C914.3 88 1005.7 81 1097 72.8C1188.3 64.7 1279.7 55.3 1371.2 53.8C1462.7 52.3 1554.3 58.7 1645.8 56.5C1737.3 54.3 1828.7 43.7 1874.3 38.3L1920 33L1920 201L1874.3 201C1828.7 201 1737.3 201 1645.8 201C1554.3 201 1462.7 201 1371.2 201C1279.7 201 1188.3 201 1097 201C1005.7 201 914.3 201 823 201C731.7 201 640.3 201 548.8 201C457.3 201 365.7 201 274.2 201C182.7 201 91.3 201 45.7 201L0 201Z" fill="#1fccbf"></path><path d="M0 80L45.7 80.3C91.3 80.7 182.7 81.3 274.2 87.3C365.7 93.3 457.3 104.7 548.8 106.5C640.3 108.3 731.7 100.7 823 99.2C914.3 97.7 1005.7 102.3 1097 99.2C1188.3 96 1279.7 85 1371.2 86.5C1462.7 88 1554.3 102 1645.8 108C1737.3 114 1828.7 112 1874.3 111L1920 110L1920 201L1874.3 201C1828.7 201 1737.3 201 1645.8 201C1554.3 201 1462.7 201 1371.2 201C1279.7 201 1188.3 201 1097 201C1005.7 201 914.3 201 823 201C731.7 201 640.3 201 548.8 201C457.3 201 365.7 201 274.2 201C182.7 201 91.3 201 45.7 201L0 201Z" fill="#00c2e0"></path><path d="M0 137L45.7 131.5C91.3 126 182.7 115 274.2 111.3C365.7 107.7 457.3 111.3 548.8 110.3C640.3 109.3 731.7 103.7 823 103.2C914.3 102.7 1005.7 107.3 1097 112.7C1188.3 118 1279.7 124 1371.2 124.3C1462.7 124.7 1554.3 119.3 1645.8 114.2C1737.3 109 1828.7 104 1874.3 101.5L1920 99L1920 201L1874.3 201C1828.7 201 1737.3 201 1645.8 201C1554.3 201 1462.7 201 1371.2 201C1279.7 201 1188.3 201 1097 201C1005.7 201 914.3 201 823 201C731.7 201 640.3 201 548.8 201C457.3 201 365.7 201 274.2 201C182.7 201 91.3 201 45.7 201L0 201Z" fill="#00b3f3"></path><path d="M0 143L45.7 141.7C91.3 140.3 182.7 137.7 274.2 139.7C365.7 141.7 457.3 148.3 548.8 146C640.3 143.7 731.7 132.3 823 133C914.3 133.7 1005.7 146.3 1097 153C1188.3 159.7 1279.7 160.3 1371.2 160.7C1462.7 161 1554.3 161 1645.8 156C1737.3 151 1828.7 141 1874.3 136L1920 131L1920 201L1874.3 201C1828.7 201 1737.3 201 1645.8 201C1554.3 201 1462.7 201 1371.2 201C1279.7 201 1188.3 201 1097 201C1005.7 201 914.3 201 823 201C731.7 201 640.3 201 548.8 201C457.3 201 365.7 201 274.2 201C182.7 201 91.3 201 45.7 201L0 201Z" fill="#009ffe"></path><path d="M0 164L45.7 166.3C91.3 168.7 182.7 173.3 274.2 174C365.7 174.7 457.3 171.3 548.8 172C640.3 172.7 731.7 177.3 823 175.3C914.3 173.3 1005.7 164.7 1097 159.3C1188.3 154 1279.7 152 1371.2 150.8C1462.7 149.7 1554.3 149.3 1645.8 153.2C1737.3 157 1828.7 165 1874.3 169L1920 173L1920 201L1874.3 201C1828.7 201 1737.3 201 1645.8 201C1554.3 201 1462.7 201 1371.2 201C1279.7 201 1188.3 201 1097 201C1005.7 201 914.3 201 823 201C731.7 201 640.3 201 548.8 201C457.3 201 365.7 201 274.2 201C182.7 201 91.3 201 45.7 201L0 201Z" fill="#3586ff"></path></svg>