<?xml version="1.0" encoding="UTF-8"?>
<svg id="Layer_1" data-name="Layer 1" xmlns="http://www.w3.org/2000/svg" viewBox="0 0 216 76.24609">
  <defs>
    <style>
      .cls-1 {
        letter-spacing: .00003em;
      }

      .cls-2 {
        letter-spacing: .01001em;
      }

      .cls-3, .cls-4 {
        stroke-width: 0px;
      }

      .cls-5 {
        letter-spacing: -.01199em;
      }

      .cls-6 {
        letter-spacing: -.006em;
      }

      .cls-7 {
        letter-spacing: -.014em;
      }

      .cls-8 {
        letter-spacing: -.00998em;
      }

      .cls-4 {
        fill: #fff;
      }

      .cls-9 {
        letter-spacing: -.00003em;
      }

      .cls-10 {
        letter-spacing: -.00005em;
      }

      .cls-11 {
        font-size: 48px;
      }

      .cls-11, .cls-12 {
        font-family: MyriadPro-Regular, 'Myriad Pro';
      }

      .cls-13 {
        letter-spacing: .01101em;
      }

      .cls-12 {
        font-size: 18px;
      }
    </style>
  </defs>
  <g>
    <rect class="cls-4" x="1.5" y="1.5" width="213" height="69" rx="10.5" ry="10.5"/>
    <path class="cls-3" d="m204,3c4.96263,0,9,4.03737,9,9v48c0,4.96263-4.03737,9-9,9H12c-4.96263,0-9-4.03737-9-9V12C3,7.03737,7.03737,3,12,3h192m0-3H12C5.4,0,0,5.4,0,12v48c0,6.6,5.4,12,12,12h192c6.60001,0,12-5.4,12-12V12c0-6.6-5.39999-12-12-12h0Z"/>
  </g>
  <text class="cls-12" transform="translate(16.41113 22.54395)"><tspan class="cls-2" x="0" y="0">H</tspan><tspan class="cls-9" x="11.91602" y="0">ighs</tspan><tspan class="cls-6" x="43.30713" y="0">c</tspan><tspan x="51.26318" y="0">o</tspan><tspan class="cls-8" x="61.14502" y="0">r</tspan><tspan class="cls-1" x="66.85107" y="0">e:</tspan></text>
  <text class="cls-12" transform="translate(123.91211 23.10742)"><tspan class="cls-5" x="0" y="0">T</tspan><tspan class="cls-10" x="8.73047" y="0">ime </tspan><tspan class="cls-7" x="40.78711" y="0">L</tspan><tspan x="49.03125" y="0">e</tspan><tspan class="cls-13" x="58.04883" y="0">f</tspan><tspan x="63.50293" y="0">t:</tspan></text>
  <text class="cls-11" transform="translate(40.41113 64.24609)"><tspan x="0" y="0">0</tspan></text>
  <text class="cls-11" transform="translate(138.19531 62.92871)"><tspan x="0" y="0">30</tspan></text>
</svg>