<?xml version="1.0" encoding="utf-8"?>
<!-- Generator: Adobe Illustrator 28.0.0, SVG Export Plug-In . SVG Version: 6.00 Build 0)  -->
<svg version="1.1" id="Layer_1" xmlns="http://www.w3.org/2000/svg" xmlns:xlink="http://www.w3.org/1999/xlink" x="0px" y="0px"
	 viewBox="0 0 216 72" style="enable-background:new 0 0 216 72;" xml:space="preserve">
	<style type="text/css">
		.st0{fill:#00C4F4;}
		.st1{font-family:'Arial-Black';}
		.st2{font-size:48px;}
	</style>
	<g>
		<path class="st0" d="M12,71.5C5.66,71.5,0.5,66.34,0.5,60V12C0.5,5.66,5.66,0.5,12,0.5h192c6.34,0,11.5,5.16,11.5,11.5v48
			c0,6.34-5.16,11.5-11.5,11.5H12z"/>
		<path d="M204,1c6.07,0,11,4.93,11,11v48c0,6.07-4.93,11-11,11H12C5.93,71,1,66.07,1,60V12C1,5.93,5.93,1,12,1H204 M204,0H12
			C5.4,0,0,5.4,0,12v48c0,6.6,5.4,12,12,12h192c6.6,0,12-5.4,12-12V12C216,5.4,210.6,0,204,0L204,0z"/>
	</g>
	<text transform="matrix(1 0 0 1 20.6665 52)" class="st1 st2">START</text>
</svg>
